<svg width="163" height="38" viewBox="0 0 163 38" fill="none" xmlns="http://www.w3.org/2000/svg">
<path d="M0.0340909 37V2.09091H13.8068C16.4545 2.09091 18.7102 2.59659 20.5739 3.60795C22.4375 4.60795 23.858 6 24.8352 7.78409C25.8239 9.55682 26.3182 11.6023 26.3182 13.9205C26.3182 16.2386 25.8182 18.2841 24.8182 20.0568C23.8182 21.8295 22.3693 23.2102 20.4716 24.1989C18.5852 25.1875 16.3011 25.6818 13.6193 25.6818H4.84091V19.767H12.4261C13.8466 19.767 15.017 19.5227 15.9375 19.0341C16.8693 18.5341 17.5625 17.8466 18.017 16.9716C18.483 16.0852 18.7159 15.0682 18.7159 13.9205C18.7159 12.7614 18.483 11.75 18.017 10.8864C17.5625 10.0114 16.8693 9.33523 15.9375 8.85795C15.0057 8.36932 13.8239 8.125 12.392 8.125H7.41477V37H0.0340909ZM37.7386 37.4943C36.0682 37.4943 34.5795 37.2045 33.2727 36.625C31.9659 36.0341 30.9318 35.1648 30.1705 34.017C29.4205 32.858 29.0455 31.4148 29.0455 29.6875C29.0455 28.233 29.3125 27.0114 29.8466 26.0227C30.3807 25.0341 31.108 24.2386 32.0284 23.6364C32.9489 23.0341 33.9943 22.5795 35.1648 22.2727C36.3466 21.9659 37.5852 21.75 38.8807 21.625C40.4034 21.4659 41.6307 21.3182 42.5625 21.1818C43.4943 21.0341 44.1705 20.8182 44.5909 20.5341C45.0114 20.25 45.2216 19.8295 45.2216 19.2727V19.1705C45.2216 18.0909 44.8807 17.2557 44.1989 16.6648C43.5284 16.0739 42.5739 15.7784 41.3352 15.7784C40.0284 15.7784 38.9886 16.0682 38.2159 16.6477C37.4432 17.2159 36.9318 17.9318 36.6818 18.7955L29.9659 18.25C30.3068 16.6591 30.9773 15.2841 31.9773 14.125C32.9773 12.9545 34.267 12.0568 35.8466 11.4318C37.4375 10.7955 39.2784 10.4773 41.3693 10.4773C42.8239 10.4773 44.2159 10.6477 45.5455 10.9886C46.8864 11.3295 48.0739 11.858 49.108 12.5739C50.1534 13.2898 50.9773 14.2102 51.5795 15.3352C52.1818 16.4489 52.483 17.7841 52.483 19.3409V37H45.5966V33.3693H45.392C44.9716 34.1875 44.4091 34.9091 43.7045 35.5341C43 36.1477 42.1534 36.6307 41.1648 36.983C40.1761 37.3239 39.0341 37.4943 37.7386 37.4943ZM39.8182 32.483C40.8864 32.483 41.8295 32.2727 42.6477 31.8523C43.4659 31.4205 44.108 30.8409 44.5739 30.1136C45.0398 29.3864 45.2727 28.5625 45.2727 27.642V24.8636C45.0455 25.0114 44.733 25.1477 44.3352 25.2727C43.9489 25.3864 43.5114 25.4943 43.0227 25.5966C42.5341 25.6875 42.0455 25.7727 41.5568 25.8523C41.0682 25.9205 40.625 25.983 40.2273 26.0398C39.375 26.1648 38.6307 26.3636 37.9943 26.6364C37.358 26.9091 36.8636 27.2784 36.5114 27.7443C36.1591 28.1989 35.983 28.767 35.983 29.4489C35.983 30.4375 36.3409 31.1932 37.0568 31.7159C37.7841 32.2273 38.7045 32.483 39.8182 32.483ZM72.0426 10.8182V16.2727H56.2756V10.8182H72.0426ZM59.8551 4.54545H67.1165V28.9545C67.1165 29.625 67.2188 30.1477 67.4233 30.5227C67.6278 30.8864 67.9119 31.142 68.2756 31.2898C68.6506 31.4375 69.0824 31.5114 69.571 31.5114C69.9119 31.5114 70.2528 31.483 70.5938 31.4261C70.9347 31.358 71.196 31.3068 71.3778 31.2727L72.5199 36.6761C72.1563 36.7898 71.6449 36.9205 70.9858 37.0682C70.3267 37.2273 69.5256 37.3239 68.5824 37.358C66.8324 37.4261 65.2983 37.1932 63.9801 36.6591C62.6733 36.125 61.6563 35.2955 60.929 34.1705C60.2017 33.0455 59.8438 31.625 59.8551 29.9091V4.54545ZM76.7727 37V10.8182H83.8125V15.3864H84.0852C84.5625 13.7614 85.3636 12.5341 86.4886 11.7045C87.6136 10.8636 88.9091 10.4432 90.375 10.4432C90.7386 10.4432 91.1307 10.4659 91.5511 10.5114C91.9716 10.5568 92.3409 10.6193 92.6591 10.6989V17.142C92.3182 17.0398 91.8466 16.9489 91.2443 16.8693C90.642 16.7898 90.0909 16.75 89.5909 16.75C88.5227 16.75 87.5682 16.983 86.7273 17.4489C85.8977 17.9034 85.2386 18.5398 84.75 19.358C84.2727 20.1761 84.0341 21.1193 84.0341 22.1875V37H76.7727ZM96.4134 37V10.8182H103.675V37H96.4134ZM100.061 7.44318C98.9815 7.44318 98.0554 7.08523 97.2827 6.36932C96.5213 5.64204 96.1406 4.77273 96.1406 3.76136C96.1406 2.76136 96.5213 1.90341 97.2827 1.1875C98.0554 0.460226 98.9815 0.0965891 100.061 0.0965891C101.141 0.0965891 102.061 0.460226 102.822 1.1875C103.595 1.90341 103.982 2.76136 103.982 3.76136C103.982 4.77273 103.595 5.64204 102.822 6.36932C102.061 7.08523 101.141 7.44318 100.061 7.44318ZM121.321 37.5114C118.639 37.5114 116.332 36.9432 114.401 35.8068C112.48 34.6591 111.003 33.0682 109.969 31.0341C108.946 29 108.435 26.6591 108.435 24.0114C108.435 21.3295 108.952 18.9773 109.986 16.9545C111.031 14.9205 112.514 13.3352 114.435 12.1989C116.355 11.0511 118.639 10.4773 121.287 10.4773C123.571 10.4773 125.571 10.892 127.287 11.7216C129.003 12.5511 130.361 13.7159 131.361 15.2159C132.361 16.7159 132.912 18.4773 133.014 20.5H126.162C125.969 19.1932 125.457 18.142 124.628 17.3466C123.81 16.5398 122.736 16.1364 121.406 16.1364C120.281 16.1364 119.298 16.4432 118.457 17.0568C117.628 17.6591 116.98 18.5398 116.514 19.6989C116.048 20.858 115.815 22.2614 115.815 23.9091C115.815 25.5795 116.043 27 116.497 28.1705C116.963 29.3409 117.616 30.233 118.457 30.8466C119.298 31.4602 120.281 31.767 121.406 31.767C122.236 31.767 122.98 31.5966 123.639 31.2557C124.31 30.9148 124.861 30.4205 125.293 29.7727C125.736 29.1136 126.026 28.3239 126.162 27.4034H133.014C132.901 29.4034 132.355 31.1648 131.378 32.6875C130.412 34.1989 129.077 35.3807 127.372 36.233C125.668 37.0852 123.651 37.5114 121.321 37.5114ZM144.243 29.4659L144.26 20.7557H145.317L153.703 10.8182H162.038L150.771 23.9773H149.05L144.243 29.4659ZM137.663 37V2.09091H144.925V37H137.663ZM154.027 37L146.322 25.5966L151.163 20.4659L162.533 37H154.027Z" fill="black"/>
</svg>
